<svg xmlns="http://www.w3.org/2000/svg" width="1024" height="1024" viewBox="0 0 1024 1024" role="img" aria-labelledby="title desc">
  <title id="title">Pinza P mark</title>
  <desc id="desc">A pure black paperclip-inspired letter P on a transparent background.</desc>
  <path fill="#000000" fill-rule="evenodd" d="M 621.4 213.9 L 582.2 201.7 L 543.8 196 L 503 196 L 481.8 198.4 L 454 204.1 L 431.2 211.5 L 406.7 222.1 L 386.2 233.5 L 367.5 246.6 L 351.9 259.7 L 332.4 280.1 L 320.9 294.8 L 300.5 329.9 L 294 345.4 L 284.2 378.9 L 279.3 420.5 L 280.1 751.3 L 282.5 766 L 286.6 779 L 292.3 792.1 L 300.5 805.2 L 316.8 823.1 L 330.7 832.9 L 340.5 837.8 L 360.1 843.5 L 387.1 844.4 L 413.2 837 L 430.3 827.2 L 443.4 815.8 L 455.7 799.4 L 464.6 779.8 L 468.7 760.2 L 469.5 742.3 L 469.5 433.6 L 472.8 422.2 L 476.9 414.8 L 485.9 405 L 499.8 396.9 L 516.9 393.6 L 530.8 394.4 L 545.5 399.3 L 555.3 405.8 L 565.1 416.5 L 571.6 430.3 L 573.2 438.5 L 572.4 455.7 L 568.3 467.9 L 560.2 480.2 L 550.4 489.1 L 539.8 494.9 L 514.4 500.6 L 507.1 506.3 L 502.2 513.6 L 499.8 521.8 L 499.8 533.2 L 501.4 538.9 L 508.7 550.4 L 521.8 557.7 L 542.2 558.5 L 554.5 556.1 L 579.8 545.5 L 597.7 532.4 L 610.8 518.5 L 622.2 501.4 L 632 477.7 L 636.1 458.9 L 636.9 432 L 635.3 419.7 L 629.6 400.1 L 621.4 383 L 611.6 369.1 L 599.4 356 L 585.5 345.4 L 570.8 337.3 L 552.8 330.7 L 529.1 326.6 L 512.8 326.6 L 490.8 329.9 L 471.2 336.4 L 457.3 343.8 L 440.1 356.8 L 429.5 368.3 L 414 394.4 L 408.3 412.4 L 405.8 429.5 L 405.8 749.6 L 400.9 762.7 L 392 771.7 L 382.2 775.8 L 373.2 775.8 L 362.6 771.7 L 352.8 761.1 L 348.7 746.4 L 349.5 417.3 L 354.4 391.1 L 362.6 369.1 L 370.7 353.6 L 387.1 330.7 L 414 305.4 L 436.1 291.5 L 449.9 285 L 468.7 278.5 L 490.8 273.6 L 503.8 271.9 L 537.3 271.9 L 560.2 275.2 L 580.6 280.9 L 603.5 290.7 L 622.2 302.1 L 637.8 314.4 L 652.5 329.1 L 662.3 341.3 L 675.3 362.6 L 687.6 394.4 L 693.3 426.3 L 692.5 460.6 L 689.2 479.3 L 682.7 500.6 L 668.8 529.1 L 652.5 552 L 634.5 570 L 610.8 587.1 L 586.3 598.6 L 569.2 603.5 L 543 606.7 L 519.3 606.7 L 505.5 613.3 L 497.3 623.9 L 494.9 631.2 L 494 643.5 L 494.9 649.2 L 499.8 660.6 L 509.6 670.4 L 518.5 674.5 L 528.3 676.1 L 573.2 674.5 L 591.2 671.2 L 615.7 663.9 L 647.6 649.2 L 678.6 628 L 702.3 605.9 L 721 583 L 733.3 564.3 L 744.7 542.2 L 752.1 524.2 L 761.9 490.8 L 767.6 446.7 L 767.6 426.3 L 764.3 394.4 L 758.6 369.1 L 751.3 347 L 744.7 331.5 L 730 304.6 L 706.3 273.6 L 684.3 252.3 L 663.9 236.8 L 645.1 225.4 Z"/>
</svg>
